<svg width="240" height="70" viewBox="0 0 240 70" fill="none" xmlns="http://www.w3.org/2000/svg">
  <path d="M1.85381 53.7272V19.4872H14.8458V53.7272H1.85381Z"/>
  <path d="M24.0368 53.7272V19.4872H36.0688L36.5808 24.8632L35.1088 24.3512C35.7488 23.2419 36.4741 22.3459 37.2848 21.6632C38.1381 20.9379 39.0341 20.3619 39.9728 19.9352C40.9115 19.5086 41.8715 19.2099 42.8528 19.0392C43.8341 18.8686 44.7728 18.7832 45.6688 18.7832C47.1621 18.7832 48.5701 18.9966 49.8928 19.4232C51.2155 19.8072 52.4101 20.5112 53.4768 21.5352C54.5435 22.5592 55.4395 24.0312 56.1648 25.9512L54.1808 25.8872L54.6928 24.9912C55.3328 23.8819 56.1008 22.9432 56.9968 22.1752C57.8928 21.4072 58.8741 20.7672 59.9408 20.2552C61.0075 19.7432 62.0955 19.3806 63.2048 19.1672C64.3141 18.9112 65.3808 18.7832 66.4048 18.7832C69.2208 18.7832 71.5888 19.3166 73.5088 20.3832C75.4288 21.4499 76.8581 23.0286 77.7968 25.1192C78.7781 27.1672 79.2688 29.6632 79.2688 32.6072V53.7272H66.2768V33.6952C66.2768 32.7566 66.1275 31.9672 65.8288 31.3272C65.5302 30.6872 65.0821 30.1966 64.4848 29.8552C63.9301 29.5139 63.2475 29.3432 62.4368 29.3432C61.7968 29.3432 61.1995 29.4499 60.6448 29.6632C60.1328 29.8339 59.6848 30.1112 59.3008 30.4952C58.9595 30.8792 58.6821 31.3059 58.4688 31.7752C58.2555 32.2446 58.1488 32.7779 58.1488 33.3752V53.7272H45.1568V33.6952C45.1568 32.7566 45.0075 31.9672 44.7088 31.3272C44.4101 30.6872 43.9621 30.1966 43.3648 29.8552C42.8101 29.5139 42.1275 29.3432 41.3168 29.3432C40.6768 29.3432 40.0795 29.4499 39.5248 29.6632C39.0128 29.8339 38.5648 30.1112 38.1808 30.4952C37.8395 30.8792 37.5621 31.3059 37.3488 31.7752C37.1355 32.2446 37.0288 32.7779 37.0288 33.3752V53.7272H24.0368Z"/>
  <path d="M99.0553 54.4312C96.4526 54.4312 94.2553 53.8979 92.4633 52.8312C90.6713 51.7646 89.306 50.2072 88.3673 48.1592C87.4286 46.0686 86.9593 43.5512 86.9593 40.6072V19.4872H99.9513V39.5192C99.9513 40.4579 100.101 41.2472 100.399 41.8872C100.741 42.5272 101.21 43.0179 101.807 43.3592C102.405 43.7006 103.13 43.8712 103.983 43.8712C104.623 43.8712 105.199 43.7859 105.711 43.6152C106.266 43.4019 106.735 43.1032 107.119 42.7192C107.503 42.3352 107.802 41.9086 108.015 41.4392C108.229 40.9272 108.335 40.3939 108.335 39.8392V19.4872H121.327V53.7272H109.423L108.655 46.8152L111.087 46.0472C110.618 47.6686 109.786 49.1192 108.591 50.3992C107.439 51.6366 106.031 52.6179 104.367 53.3432C102.703 54.0686 100.933 54.4312 99.0553 54.4312Z"/>
  <path d="M145.723 68.4472C142.651 68.4472 139.6 68.0206 136.571 67.1672C133.584 66.3139 131.131 65.2046 129.211 63.8392L133.627 55.1352C134.565 55.7326 135.547 56.2446 136.571 56.6712C137.595 57.0979 138.661 57.4179 139.771 57.6312C140.923 57.8446 142.139 57.9512 143.419 57.9512C145.424 57.9512 147.045 57.6739 148.283 57.1192C149.52 56.6072 150.416 55.7752 150.971 54.6232C151.568 53.4712 151.867 51.9992 151.867 50.2072V45.0872L154.747 45.3432C154.405 46.7939 153.659 48.0739 152.507 49.1832C151.355 50.2926 149.925 51.1672 148.219 51.8072C146.512 52.4472 144.699 52.7672 142.779 52.7672C139.749 52.7672 137.061 52.0846 134.715 50.7192C132.411 49.3539 130.576 47.4552 129.211 45.0232C127.888 42.5486 127.227 39.6472 127.227 36.3192C127.227 32.8632 127.888 29.8339 129.211 27.2312C130.533 24.5859 132.325 22.5166 134.587 21.0232C136.891 19.5299 139.515 18.7832 142.459 18.7832C143.739 18.7832 144.955 18.9112 146.107 19.1672C147.259 19.4232 148.325 19.7859 149.307 20.2552C150.288 20.6819 151.163 21.2152 151.931 21.8552C152.699 22.4952 153.317 23.1992 153.787 23.9672C154.299 24.7352 154.64 25.5672 154.811 26.4632L152.187 27.0392L152.891 19.4872H164.923V50.3992C164.923 53.2579 164.475 55.7966 163.579 58.0152C162.725 60.2766 161.467 62.1752 159.803 63.7112C158.139 65.2899 156.112 66.4632 153.723 67.2312C151.376 68.0419 148.709 68.4472 145.723 68.4472ZM146.043 43.4872C147.365 43.4872 148.475 43.2099 149.371 42.6552C150.309 42.1006 151.013 41.3112 151.483 40.2872C151.952 39.2206 152.187 37.9406 152.187 36.4472C152.187 34.9539 151.952 33.6739 151.483 32.6072C151.013 31.5406 150.309 30.7299 149.371 30.1752C148.475 29.6206 147.365 29.3432 146.043 29.3432C144.72 29.3432 143.611 29.6206 142.715 30.1752C141.819 30.7299 141.136 31.5406 140.667 32.6072C140.197 33.6739 139.963 34.9539 139.963 36.4472C139.963 37.9406 140.197 39.2206 140.667 40.2872C141.136 41.3112 141.819 42.1006 142.715 42.6552C143.611 43.2099 144.72 43.4872 146.043 43.4872Z"/>
  <path d="M190.113 54.3672C186.145 54.3672 182.731 53.5992 179.873 52.0632C177.014 50.5272 174.817 48.4366 173.281 45.7912C171.745 43.1032 170.977 40.0312 170.977 36.5752C170.977 34.0152 171.403 31.6472 172.257 29.4712C173.11 27.2952 174.305 25.4179 175.841 23.8392C177.419 22.2179 179.254 20.9806 181.345 20.1272C183.478 19.2312 185.803 18.7832 188.321 18.7832C190.838 18.7832 193.121 19.2312 195.169 20.1272C197.259 20.9806 199.051 22.2179 200.545 23.8392C202.038 25.4179 203.169 27.2952 203.937 29.4712C204.747 31.6472 205.11 34.0152 205.025 36.5752L204.961 39.2632H178.145L176.673 33.1832H194.657L193.441 34.4632V33.3112C193.441 32.5006 193.227 31.7966 192.801 31.1992C192.417 30.5592 191.862 30.0686 191.137 29.7272C190.411 29.3859 189.558 29.2152 188.577 29.2152C187.339 29.2152 186.294 29.4712 185.441 29.9832C184.587 30.4952 183.926 31.2206 183.457 32.1592C183.03 33.0979 182.817 34.2286 182.817 35.5512C182.817 37.0872 183.137 38.4312 183.777 39.5832C184.459 40.7352 185.441 41.6312 186.721 42.2712C188.043 42.9112 189.665 43.2312 191.585 43.2312C192.865 43.2312 193.953 43.0819 194.849 42.7832C195.787 42.4419 196.769 41.9086 197.793 41.1832L203.745 49.5672C202.166 50.8046 200.609 51.7646 199.073 52.4472C197.579 53.1299 196.086 53.6206 194.593 53.9192C193.142 54.2179 191.649 54.3672 190.113 54.3672Z"/>
  <path d="M222.749 54.3672C219.037 54.3672 215.794 53.8126 213.021 52.7032C210.29 51.5512 208.157 50.1219 206.621 48.4152L214.173 41.9512C215.538 43.1459 217.095 44.0419 218.845 44.6392C220.637 45.1939 222.13 45.4712 223.325 45.4712C223.751 45.4712 224.114 45.4499 224.413 45.4072C224.754 45.3219 225.01 45.2152 225.181 45.0872C225.394 44.9166 225.543 44.7459 225.629 44.5752C225.757 44.4046 225.821 44.1912 225.821 43.9352C225.821 43.2952 225.479 42.8259 224.797 42.5272C224.413 42.3566 223.773 42.1432 222.877 41.8872C222.023 41.6312 220.893 41.3326 219.485 40.9912C217.821 40.5646 216.285 40.0312 214.877 39.3912C213.511 38.7512 212.338 38.0046 211.357 37.1512C210.333 36.2126 209.522 35.1459 208.925 33.9512C208.37 32.7566 208.093 31.4126 208.093 29.9192C208.093 28.1699 208.498 26.6126 209.309 25.2472C210.119 23.8819 211.229 22.7299 212.637 21.7912C214.045 20.8099 215.623 20.0632 217.373 19.5512C219.122 19.0392 220.914 18.7832 222.749 18.7832C224.839 18.7832 226.781 18.9966 228.573 19.4232C230.407 19.8072 232.114 20.3832 233.693 21.1512C235.314 21.8766 236.786 22.7512 238.109 23.7752L231.517 31.1352C230.791 30.5379 229.938 29.9619 228.957 29.4072C228.018 28.8526 227.015 28.4046 225.949 28.0632C224.925 27.6792 223.965 27.4872 223.069 27.4872C222.599 27.4872 222.194 27.5299 221.853 27.6152C221.554 27.6579 221.298 27.7646 221.085 27.9352C220.871 28.0632 220.701 28.2339 220.573 28.4472C220.487 28.6179 220.445 28.8312 220.445 29.0872C220.445 29.4286 220.551 29.7486 220.765 30.0472C220.978 30.3459 221.319 30.6019 221.789 30.8152C222.173 30.9859 222.813 31.2206 223.709 31.5192C224.647 31.8179 226.013 32.2232 227.805 32.7352C229.725 33.2899 231.41 33.9299 232.861 34.6552C234.354 35.3806 235.549 36.2339 236.445 37.2152C237.042 37.8979 237.511 38.6659 237.853 39.5192C238.194 40.3726 238.365 41.2899 238.365 42.2712C238.365 44.6179 237.682 46.7086 236.317 48.5432C234.994 50.3352 233.159 51.7646 230.813 52.8312C228.466 53.8552 225.778 54.3672 222.749 54.3672Z"/>
  <path d="M2.08868 13.0362C3.41134 14.1029 6.07781 17.2792 8.38181 17.2792C10.6431 17.2792 14.0183 15.3406 15.341 14.1886C16.6636 13.0366 15.7418 8.92723 15.7418 7.13523C15.7418 5.17256 15.5833 2.79523 14.2606 1.72856C12.9806 0.661891 10.6858 0.99123 8.38181 0.99123C6.12048 0.99123 4.77979 2.44917 3.45712 3.60117C2.13445 4.75317 1.02181 5.34323 1.02181 7.13523C1.02181 9.0979 0.808676 11.9696 2.08868 13.0362Z" fill="#FF0000"/>
  <path d="M4.37987 4.20442C3.8366 5.42442 1.97602 8.07263 2.41576 9.85602C2.84735 11.6064 4.93771 13.8623 6.04951 14.6742C7.16132 15.4861 10.0509 14.0167 11.3877 13.6871C12.8518 13.3261 14.595 12.7661 15.1382 11.5461C15.6897 10.3591 15.006 8.64344 14.5663 6.86004C14.1347 5.10968 12.7912 4.34009 11.6794 3.52819C10.5676 2.71629 9.91506 1.96359 8.57826 2.29321C7.11415 2.65422 4.93128 3.01745 4.37987 4.20442Z" fill="#FF4040"/>
  <path d="M10.9348 5.2949C10.1168 5.18087 8.23163 4.53142 7.23436 5.09265C6.25556 5.64349 5.24082 7.25845 4.93344 8.05176C4.62606 8.84506 5.97082 10.3011 6.38324 11.0339C6.83494 11.8365 7.45069 12.7701 8.26869 12.8842C9.06821 13.0086 9.98571 12.3149 10.983 11.7537C11.9618 11.2028 12.2065 10.28 12.5139 9.48674C12.8213 8.69343 13.1671 8.1811 12.7547 7.44825C12.303 6.64561 11.7343 5.41932 10.9348 5.2949Z" fill="#FF5B5B"/>
</svg>
